<svg xmlns="http://www.w3.org/2000/svg" width="341.333" height="512" viewBox="0 0 341.333 512"><path d="M53.333,512A53.394,53.394,0,0,1,0,458.667v-192a31.742,31.742,0,0,1,6.011-18.65,32.241,32.241,0,0,1,6.752-6.907,31.916,31.916,0,0,1,8.572-4.616V149.333C21.335,66.991,88.325,0,170.667,0S320,66.991,320,149.333v53.332a10.63,10.63,0,0,1-.5,3.235v30.421q1.151.387,2.277.864a32,32,0,0,1,19.556,29.481v192A53.393,53.393,0,0,1,288,512Zm-32-245.333v192a32.036,32.036,0,0,0,32,32H288a32.036,32.036,0,0,0,32-32v-192A10.679,10.679,0,0,0,309.335,256H32A10.679,10.679,0,0,0,21.335,266.667Zm277.166-32V213.333H298V192h.668V149.333a128,128,0,1,0-256,0v85.333H64V149.333a106.667,106.667,0,1,1,213.333,0V192H278v21.334h-.5v21.334ZM85.334,149.333v85.333H256.5V205.9a10.632,10.632,0,0,1-.5-3.23V149.333a85.333,85.333,0,1,0-170.666,0Zm53.333,277.332a10.663,10.663,0,0,1-10.112-14.058l13.312-39.936A42.011,42.011,0,0,1,128,341.333a42.667,42.667,0,1,1,85.333,0,42.094,42.094,0,0,1-13.867,31.36l13.313,39.937a10.637,10.637,0,0,1-10.112,14.036Zm10.667-85.332A21.156,21.156,0,0,0,159.873,359.6a10.681,10.681,0,0,1,4.672,12.544l-11.072,33.195h34.389l-11.072-33.195a10.655,10.655,0,0,1,4.671-12.544,21.282,21.282,0,1,0-32.127-18.261Z"/></svg>