<svg xmlns="http://www.w3.org/2000/svg" xmlns:xlink="http://www.w3.org/1999/xlink" width="984" height="659" viewBox="0 0 984 659"><defs><filter id="a" x="0" y="0" width="984" height="659" filterUnits="userSpaceOnUse"><feOffset dx="15" dy="15" input="SourceAlpha"/><feGaussianBlur stdDeviation="15" result="b"/><feFlood/><feComposite operator="in" in2="b"/><feComposite in="SourceGraphic"/></filter></defs><g transform="matrix(1, 0, 0, 1, 0, 0)" filter="url(#a)"><path d="M926.5,587.5h-374a261.928,261.928,0,0,1-52.4-5.282A258.576,258.576,0,0,1,407.132,543.1a260.761,260.761,0,0,1-94.2-114.392,258.7,258.7,0,0,1-15.15-48.8,261.93,261.93,0,0,1-5.282-52.4v-49a261.93,261.93,0,0,1,5.282-52.4A258.575,258.575,0,0,1,336.9,133.132,260.76,260.76,0,0,1,451.3,38.933a258.7,258.7,0,0,1,48.8-15.15A261.928,261.928,0,0,1,552.5,18.5h374a261.924,261.924,0,0,1,52.4,5.282A258.573,258.573,0,0,1,1071.869,62.9a260.76,260.76,0,0,1,94.2,114.392,258.688,258.688,0,0,1,15.15,48.8,261.928,261.928,0,0,1,5.282,52.4v49a261.927,261.927,0,0,1-5.282,52.4,258.577,258.577,0,0,1-39.122,92.969,260.759,260.759,0,0,1-114.392,94.2,258.692,258.692,0,0,1-48.8,15.15A261.923,261.923,0,0,1,926.5,587.5ZM491.484,361.769l-53.016,127.36h21.48l53.244-127.36H491.484ZM976.013,391.1a39.817,39.817,0,0,0-15.158,2.837,38.007,38.007,0,0,0-12.568,8.513,36.745,36.745,0,0,0-8.455,13.368,50.593,50.593,0,0,0-2.818,17.4,49.63,49.63,0,0,0,2.609,16.672A32.9,32.9,0,0,0,960,470.286a49.967,49.967,0,0,0,16.777,2.618,78.287,78.287,0,0,0,15.672-1.447,46.032,46.032,0,0,0,12.435-4.342V449.748a38.967,38.967,0,0,1-10.531,4.57,46.549,46.549,0,0,1-12.093,1.523,33.881,33.881,0,0,1-8.907-1.062,18.174,18.174,0,0,1-6.536-3.185,14.6,14.6,0,0,1-4.165-5.308,21.075,21.075,0,0,1-1.795-7.432h50.882v-10.13a48.5,48.5,0,0,0-2.333-15.558,33.227,33.227,0,0,0-7-11.94,29.548,29.548,0,0,0-11.263-7.6A42.222,42.222,0,0,0,976.013,391.1ZM876,391.1a34.681,34.681,0,0,0-14.4,2.913,32.23,32.23,0,0,0-11.35,8.741,39.349,39.349,0,0,0-7.369,13.578,57.811,57.811,0,0,0-2.457,17.425,56,56,0,0,0,2.228,16.463,34.184,34.184,0,0,0,6.684,12.368,29.039,29.039,0,0,0,10.34,7.741,32.68,32.68,0,0,0,13.2,2.58,29.882,29.882,0,0,0,14-3.161,27.182,27.182,0,0,0,10.15-9.483h.305V471H921.4V355.523h-24.07v46.389h-.305A19.432,19.432,0,0,0,888.8,393.8,27.839,27.839,0,0,0,876,391.1Zm-88.055,0a53.72,53.72,0,0,0-17.69,2.732,37.827,37.827,0,0,0-13.616,8.2,34.912,34.912,0,0,0-8.683,13.035,48.253,48.253,0,0,0-2.894,17.244,47.646,47.646,0,0,0,2.79,16.786,35.265,35.265,0,0,0,8.369,12.882,36.048,36.048,0,0,0,13.244,8.2,56.928,56.928,0,0,0,35.115-.086,36.764,36.764,0,0,0,13.492-8.455,36.367,36.367,0,0,0,8.541-13.311,49.974,49.974,0,0,0,2.847-17.386,45.347,45.347,0,0,0-2.761-16.215,35.522,35.522,0,0,0-21.424-20.89A51.37,51.37,0,0,0,787.945,391.1Zm-73.963,0a53.032,53.032,0,0,0-17.948,2.866,38.961,38.961,0,0,0-13.929,8.6,36.828,36.828,0,0,0-8.941,13.568,49.967,49.967,0,0,0-2.98,17.777,42.354,42.354,0,0,0,2.78,15.634,35.849,35.849,0,0,0,8.341,12.473,36.541,36.541,0,0,0,12.835,8.17A46.315,46.315,0,0,0,710.4,472.9a69.907,69.907,0,0,0,13.577-1.181,32.751,32.751,0,0,0,9.959-3.542V448.834a36.063,36.063,0,0,1-8.7,4.228,29.125,29.125,0,0,1-8.893,1.409,26.012,26.012,0,0,1-9.045-1.476,18.6,18.6,0,0,1-6.875-4.428,19.051,19.051,0,0,1-4.342-7.017,27.6,27.6,0,0,1-1.447-9.245,27.949,27.949,0,0,1,1.514-9.512,19.384,19.384,0,0,1,11.673-11.749,26.817,26.817,0,0,1,9.283-1.514,27.836,27.836,0,0,1,8.855,1.409,28.41,28.41,0,0,1,7.979,4.228V394.752a24.71,24.71,0,0,0-8.074-2.742A67.232,67.232,0,0,0,713.982,391.1ZM422.7,387.364l-71.145,34.049v12.34L422.7,466.2V448.072L371.97,427.658V427.2L422.7,405.492Zm108.316-.762v18.13L581.9,426.515v.305l-50.883,20.338v18.052l71.145-32.449v-12.34Zm412.827-268.56V328.1h125.1v-38.38H991.159V118.041Zm-92.724,39.4c-1.166,16.324-1.758,31.454-1.758,44.97V328.1H896.09V118.041H828.562L785.642,242.26a303.966,303.966,0,0,0-8.35,30.322h-.878a176.1,176.1,0,0,0-7.471-30.029l-42.92-124.511H656.735V328.1h42.627V211.937c0-15.557-.641-33.891-1.9-54.491h1.319c3.014,15.649,5.231,25.506,6.592,29.3l50.1,141.358h38.672l49.218-142.823c1.943-5.633,4.161-15,6.592-27.832h1.172ZM534.567,245.629h.587c1.457,6.8,2.886,11.535,4.248,14.063L575.582,328.1h56.1L566.941,222.192l62.988-104.151H577.194l-33.4,62.4c-3.209,8.073-5.427,14.233-6.592,18.311h-.586a109.328,109.328,0,0,0-6.3-17.725L500.29,118.041H442.722L503.952,223.07,437.009,328.1h56.4l36.328-67.823a106.832,106.832,0,0,0,4.834-14.648ZM881.256,454.471a16.24,16.24,0,0,1-6.856-1.39,14.015,14.015,0,0,1-5.18-4.171,19.045,19.045,0,0,1-3.256-6.741,34.717,34.717,0,0,1-1.085-9.1,39.148,39.148,0,0,1,1.124-9.8,22.488,22.488,0,0,1,3.371-7.455,14.79,14.79,0,0,1,5.37-4.713,15.707,15.707,0,0,1,7.122-1.571,15.93,15.93,0,0,1,6.417,1.257,14.483,14.483,0,0,1,5.085,3.77,17.108,17.108,0,0,1,3.313,5.675,21.1,21.1,0,0,1,1.1,6.969v5.865a30.789,30.789,0,0,1-1.152,8.722,20.3,20.3,0,0,1-3.457,6.818,15.41,15.41,0,0,1-5.284,4.4A14.894,14.894,0,0,1,881.256,454.471Zm-93.615,0a20.758,20.758,0,0,1-7.931-1.4,14.111,14.111,0,0,1-5.665-4.213,18.9,18.9,0,0,1-3.4-7.022A38.253,38.253,0,0,1,769.512,432a35.057,35.057,0,0,1,1.18-9.522,19.852,19.852,0,0,1,3.542-7.083,15.077,15.077,0,0,1,5.675-4.4,18.646,18.646,0,0,1,7.58-1.466,19.781,19.781,0,0,1,7.631,1.366,13.59,13.59,0,0,1,5.451,4.1,18.467,18.467,0,0,1,3.271,6.832,37.609,37.609,0,0,1,1.09,9.564,42.16,42.16,0,0,1-1.081,10.1,20.053,20.053,0,0,1-3.242,7.213,13.587,13.587,0,0,1-5.4,4.328A18.549,18.549,0,0,1,787.64,454.471ZM989.42,424.078H960.7a21.883,21.883,0,0,1,5.141-11.959,14.655,14.655,0,0,1,4.618-3.6,12.387,12.387,0,0,1,5.4-1.2,15.564,15.564,0,0,1,5.932,1.047,10.552,10.552,0,0,1,4.237,3.142,14.077,14.077,0,0,1,2.542,5.237,28.447,28.447,0,0,1,.847,7.33Z" transform="translate(-262.5 11.5)" fill="#3ab1e6"/></g></svg>